{
	"asset":{
		"generator":"Khronos glTF Blender I/O v4.2.70",
		"version":"2.0"
	},
	"scene":0,
	"scenes":[
		{
			"name":"Scene",
			"nodes":[
				0
			]
		}
	],
	"nodes":[
		{
			"mesh":0,
			"name":"not_a_stanford_bunny_1M"
		}
	],
	"meshes":[
		{
			"name":"not_a_stanford_bunny_1M",
			"primitives":[
				{
					"attributes":{
						"POSITION":0,
						"NORMAL":1
					},
					"indices":2
				}
			]
		}
	],
	"accessors":[
		{
			"bufferView":0,
			"componentType":5126,
			"count":538932,
			"max":[
				1.2397129535675049,
				3.1365180015563965,
				1.9045610427856445
			],
			"min":[
				-2.027996063232422,
				-0.030381999909877777,
				-1.1000909805297852
			],
			"type":"VEC3"
		},
		{
			"bufferView":1,
			"componentType":5126,
			"count":538932,
			"type":"VEC3"
		},
		{
			"bufferView":2,
			"componentType":5125,
			"count":3233559,
			"type":"SCALAR"
		}
	],
	"bufferViews":[
		{
			"buffer":0,
			"byteLength":6467184,
			"byteOffset":0,
			"target":34962
		},
		{
			"buffer":0,
			"byteLength":6467184,
			"byteOffset":6467184,
			"target":34962
		},
		{
			"buffer":0,
			"byteLength":12934236,
			"byteOffset":12934368,
			"target":34963
		}
	],
	"buffers":[
		{
			"byteLength":25868604,
			"uri":"no_seams_bunny.bin"
		}
	]
}
