{
	"asset":{
		"generator":"Khronos glTF Blender I/O v4.2.70",
		"version":"2.0"
	},
	"scene":0,
	"scenes":[
		{
			"name":"Scene",
			"nodes":[
				0
			]
		}
	],
	"nodes":[
		{
			"mesh":0,
			"name":"not_a_stanford_bunny_1M"
		}
	],
	"materials":[
		{
			"doubleSided":true,
			"name":"Material.001",
			"pbrMetallicRoughness":{
				"baseColorTexture":{
					"index":0
				},
				"metallicFactor":0,
				"roughnessFactor":0.5
			}
		}
	],
	"meshes":[
		{
			"name":"not_a_stanford_bunny_1M",
			"primitives":[
				{
					"attributes":{
						"POSITION":0,
						"NORMAL":1,
						"TEXCOORD_0":2,
						"COLOR_0":3,
						"COLOR_1":4
					},
					"indices":5,
					"material":0
				}
			]
		}
	],
	"textures":[
		{
			"sampler":0,
			"source":0
		}
	],
	"images":[
		{
			"mimeType":"image/png",
			"name":"base_color",
			"uri":"base_color.png"
		}
	],
	"accessors":[
		{
			"bufferView":0,
			"componentType":5126,
			"count":694613,
			"max":[
				1.2397129535675049,
				3.1365180015563965,
				1.9045610427856445
			],
			"min":[
				-2.027996063232422,
				-0.030381999909877777,
				-1.1000909805297852
			],
			"type":"VEC3"
		},
		{
			"bufferView":1,
			"componentType":5126,
			"count":694613,
			"type":"VEC3"
		},
		{
			"bufferView":2,
			"componentType":5126,
			"count":694613,
			"type":"VEC2"
		},
		{
			"bufferView":3,
			"componentType":5121,
			"count":694613,
			"normalized":true,
			"type":"VEC4"
		},
		{
			"bufferView":4,
			"componentType":5126,
			"count":694613,
			"type":"VEC3"
		},
		{
			"bufferView":5,
			"componentType":5125,
			"count":3233559,
			"type":"SCALAR"
		}
	],
	"bufferViews":[
		{
			"buffer":0,
			"byteLength":8335356,
			"byteOffset":0,
			"target":34962
		},
		{
			"buffer":0,
			"byteLength":8335356,
			"byteOffset":8335356,
			"target":34962
		},
		{
			"buffer":0,
			"byteLength":5556904,
			"byteOffset":16670712,
			"target":34962
		},
		{
			"buffer":0,
			"byteLength":2778452,
			"byteOffset":22227616,
			"target":34962
		},
		{
			"buffer":0,
			"byteLength":8335356,
			"byteOffset":25006068,
			"target":34962
		},
		{
			"buffer":0,
			"byteLength":12934236,
			"byteOffset":33341424,
			"target":34963
		}
	],
	"samplers":[
		{
			"magFilter":9729,
			"minFilter":9987
		}
	],
	"buffers":[
		{
			"byteLength":46275660,
			"uri":"not_a_stanford_bunny.bin"
		}
	]
}
